<?xml version="1.0" encoding="UTF-8"?>
<!-- The Best Svg Icon site in the world: iconSvg.co, Visit us! https://iconsvg.co -->
<svg fill="#000000" width="800px" height="800px" version="1.1" viewBox="144 144 512 512" xmlns="http://www.w3.org/2000/svg">
 <path d="m604.67 193.91v-1.418c0.027344-0.52344 0.027344-1.0508 0-1.5742-0.54297-2.0195-1.5078-3.8984-2.8359-5.5117l-1.8906-2.0469-2.6758-1.7305-2.6758-1.1016h-3.1484l-2.5195-0.94531h-2.8359l-251.91 47.23h-1.5742l-2.9922 1.2578-2.5195 1.5742-2.0469 2.0469 0.007813 0.003906c-1.918 2.3398-3.1211 5.1797-3.4648 8.1875-0.1875 0.87891-0.29297 1.7734-0.31641 2.6758v236.16c-13.625-10.219-30.199-15.742-47.23-15.742-20.879 0-40.902 8.293-55.664 23.055-14.762 14.762-23.059 34.785-23.059 55.664 0 20.879 8.2969 40.898 23.059 55.664 14.762 14.762 34.785 23.055 55.664 23.055s40.898-8.293 55.664-23.055c14.762-14.766 23.055-34.785 23.055-55.664v-207.35l220.42-41.25v138.39c-13.625-10.223-30.199-15.746-47.234-15.746-20.875 0-40.898 8.293-55.66 23.059-14.766 14.762-23.059 34.785-23.059 55.66 0 20.879 8.293 40.902 23.059 55.664 14.762 14.766 34.785 23.059 55.66 23.059 20.879 0 40.902-8.293 55.664-23.059 14.766-14.762 23.059-34.785 23.059-55.664v-299.14c0.023437-0.46875 0.023437-0.94141 0-1.4141z"/>
</svg>